<?xml version="1.0" encoding="utf-8"?>
<!-- Generator: Adobe Illustrator 19.2.1, SVG Export Plug-In . SVG Version: 6.00 Build 0)  -->
<svg version="1.1" id="Layer_1" xmlns="http://www.w3.org/2000/svg" xmlns:xlink="http://www.w3.org/1999/xlink" x="0px" y="0px"
	 viewBox="0 0 157.8 283.9" style="enable-background:new 0 0 157.8 283.9;" xml:space="preserve">
<style type="text/css">
	.st0{fill:none;stroke:#000000;stroke-width:3;}
</style>
<g>
	<title>Layer 1</title>
	<g id="svg_4">
		<g id="svg_1" transform="matrix(2.24924 0.430668 -0.430668 2.24924 -343.115 -367.574)">
			<path id="svg_2" class="st0" d="M257.8,222.9c-0.2,2.5-0.2,2.2-0.7,3.6c1.4,1.4-0.5,5.2-3.6,6.9c-0.8,1.1-1.3,1-3.3,2.6
				c-5.3,3.2-12.9,4.7-17.5,6c-4.2,1-8.7,1-10.7,0.8c-3.6-0.3-6-0.9-8.3-2.9c-3.9-3.5-4.1-7.2-2.4-9.8c-3.3-1.8-5.9-5.5-5.9-8.9
				c-4.4-1.4-7.5-7.8-8.7-13.9c-0.6-3.1,0.2-5.6,0.7-7.2c-2.3-5.1-2.9-10.8-1.7-15.4c0.8-3.1,3.1-7.4,6.3-8.5
				c3.2-1.1,11.3-1.1,10.7-6.3c-0.6-5.2-7.4-10.4-10.7-17.2c-2-4.1-0.1-10.4,1.3-14.5c1.3-4.1,4-6.9,7.6-10.2
				c2.9-2.7,8.5-3.9,11.9-1.2c3.7,2.9,4.8,9.1,5.2,13.8c0.4,4.3-0.1,8.5,0.7,12.8c0.7,4.2,1.8,12,3.9,15.3c4,1.9,7.1,1,11.1,1.8
				c3.8,0.8,6.7,4.3,7.2,8.1c0.3,2.7-1.9,5.2,1,7.2c3.5,2.3,6.5,6.6,4.2,10.3c-2.3,3.8-1.5,4.8-1.8,5.4c-0.3,0.6-0.1,1.7,2,4.4
				c3.4,4.3,4.1,4.5,1.4,9.1C256.8,217.1,261.1,221.1,257.8,222.9z"/>
			<path id="svg_3" class="st0" d="M232.8,242.1c4.5-1.3,12.1-2.8,17.5-6c-3.1,1.2-6,1.6-7.5,1.9c-3.3,0.7-7.2,0.9-10.1,0.7
				c-3.3-0.1-4-0.4-6.3-0.9c0.6,1.2,1.6,2.3,2.8,2.9c-3.5,0.1-11.2,0-13.9-2.2c-2.7-2.1-3.8-5-1.6-8.3c0.8-1.1,0.6-2.9-0.8-1.6
				c-0.8-0.5-2.9-2.6-3.7-4.1c-1.8-3.3-2.1-9.7,0-13c-1.7,1.3-3.4,5-3.9,7c-3.6-2-6-6.7-6.8-11.5c-1.1-6.4,0.5-8.7,4.6-13.3
				c-2.8,1.4-3.9,2.9-4.8,4.5c-1.7-3.9-1.5-8.5-0.7-12.6c0.6-3,2.3-6.3,4.6-9c-3.2,1.1-5.5,5.4-6.3,8.5c-1.2,4.6-0.6,10.3,1.7,15.4
				c-0.5,1.6-1.3,4.1-0.7,7.2c1.2,6.1,4.3,12.4,8.7,13.9c0.1,3.4,2.6,7.2,5.9,8.9c-1.7,2.6-1.5,6.3,2.4,9.8c2.2,2,4.7,2.6,8.3,2.9
				C224.2,243.1,228.6,243.1,232.8,242.1z M254.3,201.9c0.3-0.6-0.5-1.6,1.8-5.4c2.3-3.8-0.7-8-4.2-10.3c-2.9-2-0.7-4.5-1-7.2
				c-0.4-3.8-3.4-7.3-7.2-8.1c-4-0.8-7.2,0.1-11.1-1.8c-2.1-3.3-3.2-11.1-3.9-15.3c-0.7-4.3-0.3-8.5-0.7-12.8
				c-0.4-4.7-1.5-10.9-5.2-13.8c-3.4-2.7-9-1.4-11.9,1.2c-3.5,3.2-6.3,6.1-7.6,10.2c-1.3,4.1-3.3,10.4-1.3,14.5
				c3.3,6.7,10.2,12,10.7,17.2c1.1-4.7-6.8-12.1-8.9-17.4c-2-4.9-0.2-9.9,1.1-13.8c0.9-2.5,3.5-6.3,6.4-8.7c2.4-1.9,5.7-4.2,9.7-1.8
				c3.6,2,4.8,8.8,5,12.5c0.3,5.1,0.2,10.2,1.3,16c0.7,3.8,2,8.7,3.6,12.5c-1.3,1.2-7.2,0.6-10.4,0.9c-4.3,0.4-9.9-0.1-13.1,3.7
				c5.7-2.3,10.6-2.3,16.2-2.4c4.2-0.1,8.4,0.2,12.6,0.2c3.3,0.3,7,0.4,9.7,2.1c2.5,1.5,3.9,3.6,2.2,6.7c-2.2,4.2,2.7,6.7,5.4,8.6
				c3.6,2.6,0.1,6.6-1,9.5c-1.2,3.2,1.7,7,3.9,9.6c2.3,2.7,0,3.4-0.8,7.7c-0.4,2.4,2.5,4.5,2,6.9c3.4-1.9-1-5.8,0-7.6
				c2.7-4.6,1.9-4.8-1.4-9.1C254.2,203.6,254,202.5,254.3,201.9z M253.5,233.5c1.9-1,5.3-4.8,3.6-6.9
				C256.8,228.4,252.1,230.8,253.5,233.5L253.5,233.5z M236.6,224.5c1.7-0.9,5.4-6.2,2.8-5.9c-3.3,2.1-6.7,5.3-10.9,5.5
				c-4.2,0.2-9.3,0.8-12.4,3.6c4-0.7,6.9-0.6,10.8-1C230,226.2,233.7,226,236.6,224.5z M214.2,222c-2.1-2.6-0.4-8.9-2.5-9.2
				c0,3.1-2.8,7.3,0.8,8.9C212.9,222,214.1,223.1,214.2,222z M239.1,204.1c2.8-4.1,1.6-4.6-0.4-3.3c-2.2,1.3-7.9,3.4-9.8,3.6
				c-4.1,0.3-12.3,1.1-14.6,4.9c3.2-1.6,9.9-2,14.3-2.6C231,206.3,237.7,206.1,239.1,204.1z M211.5,206.5c-3.9-1.2-2.8-9.5-6.1-9.4
				c-0.1,3.7,1.1,10.8,6,9.7L211.5,206.5L211.5,206.5z M236,187.2c3-2.6,2.3-4.5-2-2.6c-5.3,2.2-11.5,2.7-17,3.6
				c-3.5,0.6-9.6,1.8-11.5,4c4.5-0.6,8.9-1.9,13.3-1.9C223.9,190.3,235.4,187.8,236,187.2z M204.1,178.1c-1.5,2.7-3,6.9,0.1,9.1
				C202.9,184,205.3,180.8,204.1,178.1z M224.6,157.2c-2.6-3.1-8.3,0.4-12,1.5c-2.1,3.7,3,0.6,4.7,0.5
				C219.4,158,223.8,160,224.6,157.2z"/>
		</g>
	</g>
</g>
</svg>
